<svg height="480pt" viewBox="-1 0 480 480.00324" width="480pt" xmlns="http://www.w3.org/2000/svg"><path d="m447.832031 147.761719-205.121093-106.160157c-2.304688-1.195312-5.050782-1.195312-7.359376 0l-205.117187 106.160157c-7.804687 3.988281-17.363281.957031-21.441406-6.796875-3.988281-7.804688-.957031-17.363282 6.800781-21.441406l208.71875-107.921876c9.230469-4.78125 20.210938-4.78125 29.441406 0l208.71875 107.921876c7.753906 4.078124 10.785156 13.636718 6.800782 21.441406-4.078126 7.753906-13.636719 10.785156-21.441407 6.796875zm0 0" fill="#a8dba8"/><path d="m279.03125 408.003906c-106.039062 0-192-85.960937-192-192v-97.679687l-48 24.878906v320.800781h400v-56zm0 0" fill="#cff09e"/><path d="m242.710938 41.601562c-2.304688-1.195312-5.050782-1.195312-7.359376 0l-196.320312 101.601563v32l196.320312-101.601563c2.308594-1.195312 5.054688-1.195312 7.359376 0l196.320312 101.601563v-32zm0 0" fill="#cff09e"/><path d="m191.03125 112.003906h96v64h-96zm0 0" fill="#79bd9a"/><path d="m39.03125 472.003906v-16c0-8.835937 7.164062-16 16-16h384c8.839844 0 16 7.164063 16 16v16" fill="#cff09e"/><path d="m103.03125 344.003906h96c8.839844 0 16 7.164063 16 16v80h-128v-80c0-8.835937 7.164062-16 16-16zm0 0" fill="#a8dba8"/><path d="m167.03125 392.003906c0 8.835938-7.160156 16-16 16-8.835938 0-16-7.164062-16-16 0-8.835937 7.164062-16 16-16 8.839844 0 16 7.164063 16 16zm0 0" fill="#cff09e"/><path d="m215.03125 408.003906h32c8.839844 0 16 7.164063 16 16v16h-48zm0 0" fill="#79bd9a"/><path d="m359.03125 216.003906h-112v32c0 17.671875 14.328125 32 32 32v-32h80v32c17.675781 0 32-14.328125 32-32s-14.324219-32-32-32zm0 0" fill="#79bd9a"/><path d="m359.03125 344.003906h-20v8c0 8.835938-7.160156 16-16 16h-8c-8.835938 0-16-7.164062-16-16v-8h-20c-17.671875 0-32 14.328125-32 32v32c8.839844 0 16 7.164063 16 16v16h128v-64c0-17.671875-14.324219-32-32-32zm0 0" fill="#a8dba8"/><path d="m351.03125 440.003906v-48c0-4.417968 3.582031-8 8-8s8 3.582032 8 8v48" fill="#7ab92d"/><path d="m271.03125 440.003906v-48c0-4.417968 3.582031-8 8-8s8 3.582032 8 8v48" fill="#7ab92d"/><path d="m299.03125 322.484375v16c12.316406 7.367187 27.6875 7.367187 40 0v-16c-12.3125 7.367187-27.683594 7.367187-40 0zm0 0" fill="#cff09e"/><path d="m359.03125 264.003906v-16h-80v38.398438c-.496094 12.292968 4.691406 24.125 14.0625 32.09375 9.371094 7.964844 21.890625 11.175781 33.9375 8.707031-18.625-3.800781-32.003906-20.1875-32-39.199219v-1.839844c0-12.238281 9.921875-22.160156 22.160156-22.160156zm0 0" fill="#cff09e"/><path d="m167.03125 304.003906v-48h32l-56-64-56 64h32v48" fill="#a8dba8"/><g fill="#3b8686"><path d="m439.03125 432.003906h-40v-56c0-22.09375-17.90625-40-40-40h-12v-9.039062c12.550781-9.011719 19.992188-23.511719 20-38.960938v-.800781c20.140625-4.089844 33.90625-22.773437 31.839844-43.21875s-19.289063-36-39.839844-35.980469h-112c-4.417969 0-8 3.582032-8 8v32c-.003906 19.011719 13.375 35.398438 32 39.199219v.800781c.011719 15.449219 7.453125 29.949219 20 38.960938v9.039062h-12c-22.089844 0-40 17.90625-40 40v24h-16v-40c0-13.253906-10.742188-24-24-24h-96c-13.253906 0-24 10.746094-24 24v72h-24c-13.253906 0-24 10.746094-24 24v16c0 4.417969 3.582031 8 8 8s8-3.582031 8-8v-16c0-4.417968 3.582031-8 8-8h384c4.417969 0 8 3.582032 8 8v16c0 4.417969 3.582031 8 8 8s8-3.582031 8-8v-16c0-13.253906-10.742188-24-24-24zm-184-184v-24h104c11.703125-.019531 21.714844 8.40625 23.691406 19.941406 1.980469 11.535157-4.648437 22.8125-15.691406 26.699219v-22.640625c0-4.417968-3.582031-8-8-8h-80c-4.417969 0-8 3.582032-8 8v22.640625c-9.59375-3.394531-16.003906-12.464843-16-22.640625zm32 8h64v32c.011719 10.90625-5.539062 21.070313-14.71875 26.960938l-1.28125.558594c-9.84375 5.921874-22.152344 5.921874-32 0l-1.277344-.558594c-9.183594-5.890625-14.730468-16.054688-14.722656-26.960938zm32 80c4.046875-.011718 8.078125-.523437 12-1.519531v17.519531c0 4.417969-3.582031 8-8 8h-8c-4.417969 0-8-3.582031-8-8v-17.519531c3.925781.996094 7.953125 1.507813 12 1.519531zm-224 24c0-4.417968 3.582031-8 8-8h96c4.417969 0 8 3.582032 8 8v72h-112zm128 56h24c4.417969 0 8 3.582032 8 8v8h-32zm144 16v-40c0-4.417968-3.582031-8-8-8s-8 3.582032-8 8v40h-64v-40c0-4.417968-3.582031-8-8-8s-8 3.582032-8 8v29.359375s0-.480469 0-.800781c.039062-.34375.039062-.695312 0-1.039062.039062-.265626.039062-.535157 0-.800782v-1.839844c-.03125-.320312-.03125-.640624 0-.960937v-.636719c.015625-.214844.015625-.429687 0-.640625l-.480469-.800781-.558593-.878906c-.023438-.214844-.023438-.429688 0-.640625l-.480469-.5625-4.71875-3.757813-.640625-.640625-1.121094-.960937-.558594-.480469-.800781-.636719-.71875-.480468h-.558594l-.722656-.480469-.960937-.480469h-3.679688v-27.839844c0-13.253906 10.746094-24 24-24h12c0 13.253906 10.746094 24 24 24h8c13.257812 0 24-10.746094 24-24h12c13.257812 0 24 10.746094 24 24v56zm0 0"/><path d="m151.03125 368.003906c-13.253906 0-24 10.746094-24 24s10.746094 24 24 24c13.257812 0 24-10.746094 24-24s-10.742188-24-24-24zm0 32c-4.417969 0-8-3.582031-8-8 0-4.417968 3.582031-8 8-8s8 3.582032 8 8c0 4.417969-3.582031 8-8 8zm0 0"/><path d="m137.03125 186.722656-56 64c-2.070312 2.359375-2.570312 5.714844-1.277344 8.574219 1.292969 2.863281 4.140625 4.703125 7.277344 4.707031h24v40c0 4.417969 3.582031 8 8 8s8-3.582031 8-8v-48c0-4.417968-3.582031-8-8-8h-14.398438l38.398438-43.839844 38.402344 43.839844h-14.402344c-4.417969 0-8 3.582032-8 8v48c0 4.417969 3.582031 8 8 8s8-3.582031 8-8v-40h24c3.140625-.003906 5.988281-1.84375 7.28125-4.707031 1.292969-2.859375.792969-6.214844-1.28125-8.574219l-56-64c-1.515625-1.722656-3.703125-2.707031-6-2.707031-2.292969 0-4.480469.984375-6 2.707031zm0 0"/><path d="m477.914062 126.402344c-1.921874-6.035156-6.148437-11.066406-11.761718-14l-208.71875-107.917969c-11.539063-5.980469-25.261719-5.980469-36.800782 0l-208.71875 107.917969c-10.527343 6.140625-14.785156 19.195312-9.898437 30.359375 4.886719 11.164062 17.363281 16.890625 29.015625 13.320312v123.921875c0 4.417969 3.582031 8 8 8s8-3.582031 8-8v-132l192-99.28125 192 99.28125v132c0 4.417969 3.582031 8 8 8s8-3.582031 8-8v-123.921875c2.566406.933594 5.273438 1.417969 8 1.441407 2.46875-.015626 4.921875-.390626 7.28125-1.121094 12.527344-4.050782 19.449219-17.433594 15.519531-30zm-16 10.882812c-2.054687 3.816406-6.769531 5.304688-10.640624 3.359375l-204.878907-106.160156c-4.632812-2.328125-10.089843-2.328125-14.722656 0l-205.121094 106.160156c-2.824219 1.328125-6.167969.890625-8.554687-1.121093-2.390625-2.011719-3.390625-5.226563-2.5625-8.238282.625-1.988281 2.003906-3.65625 3.839844-4.640625l208.71875-107.921875c6.921874-3.585937 15.15625-3.585937 22.082031 0l208.71875 107.921875c1.835937.984375 3.214843 2.652344 3.839843 4.640625.628907 1.984375.453126 4.136719-.480468 6zm0 0"/><path d="m287.03125 184.003906c4.417969 0 8-3.582031 8-8v-64c0-4.417968-3.582031-8-8-8h-96c-4.417969 0-8 3.582032-8 8v64c0 4.417969 3.582031 8 8 8zm-88-32h32v16h-32zm48 16v-16h32v16zm32-32h-32v-16h32zm-48-16v16h-32v-16zm0 0"/></g></svg>